<svg xmlns="http://www.w3.org/2000/svg" xmlns:xlink="http://www.w3.org/1999/xlink" width="500" zoomAndPan="magnify" viewBox="0 0 375 374.999991" height="500" preserveAspectRatio="xMidYMid meet" version="1.0"><defs><clipPath id="788491943b"><path d="M 93 267 L 373.808594 267 L 373.808594 357.421875 L 93 357.421875 Z M 93 267 " clip-rule="nonzero"/></clipPath><clipPath id="567a57d38b"><path d="M 4.808594 138 L 60 138 L 60 280 L 4.808594 280 Z M 4.808594 138 " clip-rule="nonzero"/></clipPath><clipPath id="834b41b97a"><path d="M 125.929688 280.539062 L 354.839844 280.539062 L 354.839844 345.054688 L 125.929688 345.054688 Z M 125.929688 280.539062 " clip-rule="nonzero"/></clipPath><clipPath id="03c4ecee04"><path d="M 107.796875 291.464844 L 151.226562 291.464844 L 151.226562 333 L 107.796875 333 Z M 107.796875 291.464844 " clip-rule="nonzero"/></clipPath><clipPath id="4a5c3618c0"><path d="M 160.148438 290.253906 L 203.578125 290.253906 L 203.578125 332 L 160.148438 332 Z M 160.148438 290.253906 " clip-rule="nonzero"/></clipPath><clipPath id="f77bede489"><path d="M 212.503906 290.253906 L 255.929688 290.253906 L 255.929688 332 L 212.503906 332 Z M 212.503906 290.253906 " clip-rule="nonzero"/></clipPath><clipPath id="5c2ea1cc64"><path d="M 264.90625 290.253906 L 308.335938 290.253906 L 308.335938 332 L 264.90625 332 Z M 264.90625 290.253906 " clip-rule="nonzero"/></clipPath><clipPath id="42c789daaa"><path d="M 317.046875 290.253906 L 360.476562 290.253906 L 360.476562 332 L 317.046875 332 Z M 317.046875 290.253906 " clip-rule="nonzero"/></clipPath></defs><path fill="#eb9c3d" d="M 329.847656 307.847656 L 318.421875 306.1875 C 316.078125 305.847656 314.058594 304.378906 313.007812 302.257812 L 307.898438 291.902344 L 302.789062 302.253906 C 301.738281 304.378906 299.71875 305.847656 297.378906 306.1875 L 285.949219 307.847656 L 294.214844 315.910156 C 295.910156 317.554688 296.683594 319.9375 296.28125 322.273438 L 294.332031 333.652344 L 304.550781 328.277344 C 306.644531 327.175781 309.148438 327.175781 311.242188 328.277344 L 321.460938 333.652344 L 319.511719 322.269531 C 319.109375 319.9375 319.882812 317.558594 321.582031 315.90625 Z M 329.847656 307.847656 " fill-opacity="1" fill-rule="evenodd"/><path fill="#eb9c3d" d="M 255.390625 307.847656 L 243.964844 306.1875 C 241.617188 305.84375 239.59375 304.371094 238.550781 302.25 L 233.441406 291.898438 L 228.332031 302.253906 C 227.28125 304.375 225.257812 305.84375 222.921875 306.1875 L 211.492188 307.847656 L 219.757812 315.90625 C 221.449219 317.550781 222.222656 319.925781 221.828125 322.261719 L 219.875 333.648438 L 230.09375 328.277344 C 231.140625 327.726562 232.289062 327.449219 233.4375 327.449219 C 234.589844 327.449219 235.738281 327.726562 236.785156 328.277344 L 247.007812 333.652344 L 245.054688 322.269531 C 244.652344 319.9375 245.425781 317.558594 247.121094 315.90625 Z M 255.390625 307.847656 " fill-opacity="1" fill-rule="evenodd"/><path fill="#eb9c3d" d="M 180.933594 307.847656 L 169.507812 306.1875 C 167.160156 305.84375 165.136719 304.375 164.09375 302.25 L 158.984375 291.898438 L 153.875 302.253906 C 152.832031 304.371094 150.808594 305.84375 148.46875 306.1875 L 137.035156 307.847656 L 145.304688 315.910156 C 147 317.5625 147.769531 319.941406 147.371094 322.273438 L 145.417969 333.652344 L 155.640625 328.277344 C 156.683594 327.726562 157.832031 327.453125 158.980469 327.453125 C 160.132812 327.453125 161.28125 327.726562 162.332031 328.28125 L 172.550781 333.652344 L 170.597656 322.273438 C 170.199219 319.9375 170.972656 317.558594 172.667969 315.90625 Z M 180.933594 307.847656 " fill-opacity="1" fill-rule="evenodd"/><g clip-path="url(#788491943b)"><path fill="#eb9c3d" d="M 328.71875 267.738281 L 285.425781 267.738281 C 285.417969 267.738281 285.410156 267.738281 285.402344 267.738281 C 285.390625 267.738281 285.382812 267.738281 285.371094 267.738281 L 138.164062 267.738281 C 126.785156 267.738281 115.929688 272.007812 107.605469 279.761719 C 98.464844 288.257812 93.304688 300.082031 93.320312 312.582031 C 93.320312 337.308594 113.4375 357.425781 138.167969 357.425781 L 328.71875 357.425781 C 340.695312 357.425781 351.957031 352.761719 360.425781 344.292969 C 368.898438 335.820312 373.5625 324.558594 373.5625 312.582031 C 373.5625 287.855469 353.445312 267.738281 328.71875 267.738281 Z M 187.917969 312.355469 L 178.664062 321.375 L 180.851562 334.109375 C 182.027344 339.773438 175.433594 344.550781 170.421875 341.6875 L 158.984375 335.675781 L 147.546875 341.6875 C 145.105469 342.96875 142.203125 342.757812 139.972656 341.136719 C 137.746094 339.515625 136.652344 336.824219 137.121094 334.105469 L 139.304688 321.375 L 130.050781 312.355469 C 128.078125 310.433594 127.378906 307.609375 128.230469 304.988281 C 129.082031 302.363281 131.308594 300.492188 134.039062 300.09375 L 146.820312 298.238281 L 152.539062 286.648438 C 153.761719 284.179688 156.230469 282.644531 158.984375 282.644531 C 158.984375 282.644531 158.988281 282.644531 158.988281 282.644531 C 161.742188 282.644531 164.210938 284.179688 165.429688 286.648438 L 171.148438 298.238281 L 183.9375 300.09375 C 186.660156 300.488281 188.886719 302.363281 189.738281 304.984375 C 190.589844 307.609375 189.894531 310.433594 187.917969 312.355469 Z M 262.375 312.355469 L 253.125 321.375 L 255.308594 334.109375 C 256.484375 339.773438 249.890625 344.550781 244.882812 341.6875 L 233.441406 335.675781 L 222.003906 341.6875 C 219.5625 342.96875 216.664062 342.757812 214.433594 341.140625 C 212.203125 339.519531 211.109375 336.824219 211.578125 334.109375 L 213.761719 321.378906 L 204.507812 312.355469 C 202.53125 310.433594 201.835938 307.609375 202.6875 304.988281 C 203.539062 302.367188 205.761719 300.492188 208.492188 300.097656 L 221.277344 298.238281 L 226.996094 286.652344 C 228.214844 284.179688 230.6875 282.644531 233.441406 282.644531 C 236.199219 282.644531 238.667969 284.179688 239.886719 286.652344 L 245.609375 298.238281 L 258.394531 300.097656 C 261.121094 300.492188 263.34375 302.363281 264.195312 304.984375 C 265.046875 307.609375 264.351562 310.433594 262.375 312.355469 Z M 336.832031 312.355469 L 327.582031 321.375 L 329.761719 334.109375 C 330.230469 336.824219 329.136719 339.519531 326.90625 341.136719 C 325.644531 342.054688 324.171875 342.519531 322.6875 342.519531 C 321.542969 342.519531 320.398438 342.246094 319.335938 341.6875 L 307.898438 335.675781 L 296.460938 341.6875 C 294.019531 342.96875 291.117188 342.757812 288.890625 341.136719 C 286.660156 339.519531 285.566406 336.824219 286.03125 334.105469 L 288.214844 321.375 L 278.960938 312.355469 C 276.988281 310.433594 276.292969 307.609375 277.144531 304.984375 C 277.996094 302.363281 280.21875 300.492188 282.949219 300.09375 L 295.734375 298.238281 L 301.453125 286.648438 C 302.671875 284.179688 305.140625 282.644531 307.898438 282.644531 C 310.65625 282.644531 313.125 284.179688 314.34375 286.648438 L 320.0625 298.238281 L 332.847656 300.097656 C 335.574219 300.492188 337.796875 302.363281 338.652344 304.988281 C 339.503906 307.609375 338.804688 310.433594 336.832031 312.355469 Z M 336.832031 312.355469 " fill-opacity="1" fill-rule="evenodd"/></g><g clip-path="url(#567a57d38b)"><path fill="#007c6f" d="M 59.941406 151.578125 C 59.941406 144.25 53.980469 138.285156 46.648438 138.285156 L 18.152344 138.285156 C 10.824219 138.285156 4.859375 144.25 4.859375 151.578125 L 4.859375 266.179688 C 4.859375 273.507812 10.824219 279.472656 18.152344 279.472656 L 46.648438 279.472656 C 53.976562 279.472656 59.941406 273.507812 59.941406 266.179688 Z M 36.453125 258.332031 C 36.453125 260.570312 34.640625 262.382812 32.402344 262.382812 C 30.164062 262.382812 28.351562 260.570312 28.351562 258.332031 L 28.351562 238.625 C 28.351562 236.390625 30.164062 234.574219 32.402344 234.574219 C 34.640625 234.574219 36.453125 236.390625 36.453125 238.625 Z M 36.453125 258.332031 " fill-opacity="1" fill-rule="evenodd"/></g><path fill="#007c6f" d="M 277.246094 247.386719 C 274.210938 244.351562 270.175781 242.679688 265.878906 242.679688 C 265.863281 242.679688 265.847656 242.679688 265.828125 242.679688 L 245.320312 242.679688 C 243.082031 242.679688 241.269531 240.863281 241.269531 238.628906 C 241.269531 236.390625 243.082031 234.574219 245.320312 234.574219 L 268.617188 234.578125 C 272.910156 234.578125 276.945312 232.90625 279.980469 229.867188 C 283.019531 226.832031 284.691406 222.792969 284.691406 218.5 C 284.691406 209.636719 277.480469 202.421875 268.613281 202.421875 L 248.058594 202.421875 C 245.820312 202.421875 244.003906 200.609375 244.003906 198.371094 C 244.003906 196.132812 245.820312 194.320312 248.058594 194.320312 L 271.351562 194.320312 C 275.648438 194.320312 279.683594 192.648438 282.71875 189.609375 C 285.757812 186.574219 287.429688 182.539062 287.429688 178.242188 C 287.429688 169.375 280.214844 162.164062 271.351562 162.164062 L 253.53125 162.164062 C 251.292969 162.164062 249.480469 160.347656 249.480469 158.113281 C 249.480469 155.875 251.292969 154.058594 253.53125 154.058594 L 274.089844 154.058594 C 278.382812 154.058594 282.421875 152.386719 285.457031 149.347656 C 288.507812 146.304688 290.175781 142.25 290.164062 137.929688 C 290.140625 129.097656 282.792969 121.90625 273.789062 121.90625 C 273.777344 121.90625 273.765625 121.90625 273.75 121.90625 L 176.5 120.988281 C 173.699219 120.960938 171.003906 119.769531 169.105469 117.722656 C 167.207031 115.679688 166.222656 112.914062 166.398438 110.128906 C 166.65625 106.085938 166.835938 101.933594 166.929688 97.792969 C 167.183594 87.25 167.019531 71.710938 164.785156 57.558594 C 162.390625 42.394531 158.035156 31.667969 152.183594 26.550781 C 143.070312 18.578125 133.917969 17.71875 124.972656 24.003906 C 122.003906 26.089844 120.867188 29.929688 122.203125 33.339844 C 122.222656 33.390625 122.242188 33.445312 122.261719 33.496094 C 125.964844 44.214844 128.40625 59.589844 128.632812 73.617188 C 128.835938 86.144531 127.425781 103.773438 119.558594 116.621094 C 119.53125 116.660156 119.507812 116.695312 119.484375 116.734375 C 112.074219 127.957031 103.871094 137.421875 95.089844 144.859375 C 86.378906 152.242188 77.296875 157.457031 68.046875 160.382812 L 68.046875 259.105469 C 71.964844 260.382812 75.359375 262.089844 78.171875 264.203125 C 84.171875 267.59375 92.730469 270.363281 103.632812 272.449219 C 113.238281 264.175781 125.421875 259.636719 138.164062 259.636719 L 281.929688 259.636719 C 281.945312 259.34375 281.957031 259.050781 281.957031 258.753906 C 281.957031 254.457031 280.285156 250.421875 277.246094 247.386719 Z M 277.246094 247.386719 " fill-opacity="1" fill-rule="evenodd"/><g clip-path="url(#834b41b97a)"><path fill="#eb9c3d" d="M 125.929688 280.539062 L 354.753906 280.539062 L 354.753906 345.054688 L 125.929688 345.054688 Z M 125.929688 280.539062 " fill-opacity="1" fill-rule="nonzero"/></g><g clip-path="url(#03c4ecee04)"><path fill="#ffffff" d="M 141.867188 332.921875 C 141.589844 332.925781 141.324219 332.863281 141.078125 332.734375 L 129.523438 326.65625 L 117.953125 332.734375 C 117.667969 332.882812 117.367188 332.945312 117.050781 332.921875 C 116.730469 332.898438 116.441406 332.792969 116.183594 332.605469 C 115.925781 332.417969 115.734375 332.179688 115.613281 331.882812 C 115.492188 331.585938 115.457031 331.28125 115.507812 330.96875 L 117.734375 318.082031 L 108.367188 308.953125 C 108.140625 308.730469 107.992188 308.460938 107.917969 308.152344 C 107.839844 307.839844 107.855469 307.535156 107.953125 307.230469 C 108.054688 306.925781 108.226562 306.671875 108.472656 306.46875 C 108.714844 306.261719 108.996094 306.136719 109.3125 306.089844 L 122.246094 304.203125 L 128.023438 292.414062 C 128.167969 292.128906 128.375 291.902344 128.644531 291.734375 C 128.917969 291.566406 129.210938 291.480469 129.53125 291.480469 C 129.851562 291.480469 130.144531 291.566406 130.417969 291.734375 C 130.6875 291.902344 130.894531 292.128906 131.039062 292.414062 L 136.816406 304.203125 L 149.734375 306.089844 C 150.050781 306.136719 150.332031 306.265625 150.578125 306.472656 C 150.824219 306.679688 150.996094 306.9375 151.09375 307.242188 C 151.195312 307.546875 151.203125 307.855469 151.125 308.167969 C 151.046875 308.480469 150.890625 308.746094 150.660156 308.972656 L 141.3125 318.082031 L 143.519531 330.96875 C 143.5625 331.214844 143.550781 331.457031 143.484375 331.699219 C 143.417969 331.941406 143.300781 332.15625 143.140625 332.347656 C 142.976562 332.539062 142.78125 332.683594 142.554688 332.789062 C 142.324219 332.890625 142.085938 332.941406 141.835938 332.9375 Z M 129.523438 323.066406 C 129.800781 323.0625 130.066406 323.125 130.3125 323.253906 L 139.628906 328.15625 L 137.84375 317.761719 C 137.746094 317.183594 137.910156 316.6875 138.332031 316.28125 L 145.875 308.871094 L 135.453125 307.355469 C 134.867188 307.265625 134.445312 306.957031 134.1875 306.425781 L 129.523438 297.078125 L 124.855469 306.527344 C 124.597656 307.058594 124.175781 307.367188 123.59375 307.453125 L 113.167969 308.871094 L 120.714844 316.230469 C 121.136719 316.640625 121.296875 317.132812 121.203125 317.710938 L 119.417969 328.15625 L 128.746094 323.253906 C 128.992188 323.128906 129.25 323.066406 129.523438 323.066406 Z M 129.523438 323.066406 " fill-opacity="1" fill-rule="nonzero"/></g><g clip-path="url(#4a5c3618c0)"><path fill="#ffffff" d="M 194.222656 331.710938 C 193.941406 331.714844 193.679688 331.652344 193.429688 331.527344 L 181.875 325.445312 L 170.304688 331.527344 C 170.023438 331.671875 169.722656 331.734375 169.402344 331.714844 C 169.085938 331.691406 168.796875 331.585938 168.535156 331.398438 C 168.277344 331.210938 168.089844 330.96875 167.964844 330.671875 C 167.84375 330.378906 167.8125 330.070312 167.863281 329.757812 L 170.085938 316.871094 L 160.722656 307.742188 C 160.496094 307.519531 160.34375 307.25 160.269531 306.941406 C 160.195312 306.628906 160.207031 306.324219 160.308594 306.019531 C 160.40625 305.71875 160.578125 305.460938 160.824219 305.257812 C 161.070312 305.050781 161.347656 304.925781 161.664062 304.878906 L 174.601562 302.996094 L 180.378906 291.203125 C 180.519531 290.917969 180.726562 290.691406 180.996094 290.523438 C 181.269531 290.355469 181.566406 290.273438 181.882812 290.273438 C 182.203125 290.273438 182.5 290.355469 182.769531 290.523438 C 183.042969 290.691406 183.25 290.917969 183.390625 291.203125 L 189.167969 302.996094 L 202.085938 304.878906 C 202.40625 304.925781 202.6875 305.054688 202.933594 305.261719 C 203.179688 305.46875 203.351562 305.726562 203.449219 306.03125 C 203.546875 306.335938 203.558594 306.648438 203.476562 306.957031 C 203.398438 307.269531 203.246094 307.539062 203.011719 307.761719 L 193.664062 316.871094 L 195.871094 329.757812 C 195.914062 330.003906 195.902344 330.25 195.835938 330.488281 C 195.769531 330.730469 195.65625 330.949219 195.492188 331.136719 C 195.328125 331.328125 195.132812 331.476562 194.90625 331.578125 C 194.679688 331.679688 194.4375 331.730469 194.1875 331.726562 Z M 181.875 321.859375 C 182.15625 321.855469 182.417969 321.914062 182.667969 322.042969 L 191.980469 326.945312 L 190.195312 316.550781 C 190.101562 315.972656 190.261719 315.480469 190.683594 315.070312 L 198.230469 307.660156 L 187.804688 306.144531 C 187.222656 306.054688 186.800781 305.746094 186.542969 305.21875 L 181.875 295.871094 L 177.210938 305.320312 C 176.953125 305.847656 176.53125 306.15625 175.949219 306.246094 L 165.523438 307.660156 L 173.066406 315.019531 C 173.488281 315.429688 173.652344 315.921875 173.554688 316.503906 L 171.769531 326.945312 L 181.101562 322.042969 C 181.34375 321.917969 181.601562 321.855469 181.875 321.859375 Z M 181.875 321.859375 " fill-opacity="1" fill-rule="nonzero"/></g><g clip-path="url(#f77bede489)"><path fill="#ffffff" d="M 246.574219 331.710938 C 246.296875 331.714844 246.03125 331.652344 245.78125 331.527344 L 234.230469 325.445312 L 222.660156 331.527344 C 222.375 331.671875 222.074219 331.734375 221.757812 331.714844 C 221.4375 331.691406 221.148438 331.585938 220.890625 331.398438 C 220.632812 331.210938 220.441406 330.96875 220.320312 330.671875 C 220.199219 330.378906 220.164062 330.070312 220.214844 329.757812 L 222.441406 316.871094 L 213.074219 307.742188 C 212.847656 307.519531 212.699219 307.25 212.621094 306.941406 C 212.546875 306.628906 212.5625 306.324219 212.660156 306.019531 C 212.761719 305.71875 212.933594 305.460938 213.175781 305.257812 C 213.421875 305.050781 213.703125 304.925781 214.019531 304.878906 L 226.953125 302.996094 L 232.730469 291.203125 C 232.871094 290.917969 233.078125 290.691406 233.351562 290.523438 C 233.621094 290.355469 233.917969 290.273438 234.238281 290.273438 C 234.558594 290.273438 234.851562 290.355469 235.125 290.523438 C 235.394531 290.691406 235.601562 290.917969 235.746094 291.203125 L 241.523438 302.996094 L 254.441406 304.878906 C 254.757812 304.925781 255.039062 305.054688 255.285156 305.261719 C 255.53125 305.46875 255.703125 305.726562 255.800781 306.03125 C 255.898438 306.335938 255.910156 306.648438 255.832031 306.957031 C 255.753906 307.269531 255.597656 307.539062 255.367188 307.761719 L 246.019531 316.871094 L 248.226562 329.757812 C 248.269531 330.003906 248.257812 330.25 248.191406 330.488281 C 248.125 330.730469 248.007812 330.949219 247.847656 331.136719 C 247.683594 331.328125 247.488281 331.476562 247.257812 331.578125 C 247.03125 331.679688 246.792969 331.730469 246.542969 331.726562 Z M 234.230469 321.859375 C 234.507812 321.855469 234.773438 321.914062 235.019531 322.042969 L 244.335938 326.945312 L 242.550781 316.550781 C 242.453125 315.972656 242.617188 315.480469 243.039062 315.070312 L 250.582031 307.660156 L 240.15625 306.144531 C 239.574219 306.054688 239.152344 305.746094 238.894531 305.21875 L 234.230469 295.871094 L 229.5625 305.320312 C 229.304688 305.847656 228.882812 306.15625 228.300781 306.246094 L 217.875 307.660156 L 225.421875 315.019531 C 225.839844 315.429688 226.003906 315.921875 225.910156 316.503906 L 224.125 326.945312 L 233.453125 322.042969 C 233.699219 321.917969 233.957031 321.855469 234.230469 321.859375 Z M 234.230469 321.859375 " fill-opacity="1" fill-rule="nonzero"/></g><g clip-path="url(#5c2ea1cc64)"><path fill="#ffffff" d="M 298.980469 331.710938 C 298.699219 331.714844 298.4375 331.652344 298.1875 331.527344 L 286.632812 325.445312 L 275.0625 331.527344 C 274.78125 331.671875 274.480469 331.734375 274.160156 331.714844 C 273.839844 331.691406 273.550781 331.585938 273.292969 331.398438 C 273.035156 331.210938 272.84375 330.96875 272.722656 330.671875 C 272.601562 330.378906 272.566406 330.070312 272.621094 329.757812 L 274.84375 316.871094 L 265.480469 307.742188 C 265.253906 307.519531 265.101562 307.25 265.027344 306.941406 C 264.953125 306.628906 264.964844 306.324219 265.066406 306.019531 C 265.164062 305.71875 265.335938 305.460938 265.582031 305.257812 C 265.824219 305.050781 266.105469 304.925781 266.421875 304.878906 L 279.355469 302.996094 L 285.132812 291.203125 C 285.277344 290.917969 285.484375 290.691406 285.753906 290.523438 C 286.027344 290.355469 286.324219 290.273438 286.640625 290.273438 C 286.960938 290.273438 287.257812 290.355469 287.527344 290.523438 C 287.800781 290.691406 288.007812 290.917969 288.148438 291.203125 L 293.925781 302.996094 L 306.84375 304.878906 C 307.164062 304.925781 307.445312 305.054688 307.691406 305.261719 C 307.933594 305.46875 308.105469 305.726562 308.207031 306.03125 C 308.304688 306.335938 308.3125 306.648438 308.234375 306.957031 C 308.15625 307.269531 308.003906 307.539062 307.769531 307.761719 L 298.421875 316.871094 L 300.628906 329.757812 C 300.671875 330.003906 300.660156 330.25 300.59375 330.488281 C 300.527344 330.730469 300.414062 330.949219 300.25 331.136719 C 300.085938 331.328125 299.890625 331.476562 299.664062 331.578125 C 299.433594 331.679688 299.195312 331.730469 298.945312 331.726562 Z M 286.632812 321.859375 C 286.914062 321.855469 287.175781 321.914062 287.425781 322.042969 L 296.738281 326.945312 L 294.953125 316.550781 C 294.859375 315.972656 295.019531 315.480469 295.441406 315.070312 L 302.988281 307.660156 L 292.5625 306.144531 C 291.980469 306.054688 291.558594 305.746094 291.296875 305.21875 L 286.632812 295.871094 L 281.96875 305.320312 C 281.710938 305.847656 281.289062 306.15625 280.703125 306.246094 L 270.277344 307.660156 L 277.824219 315.019531 C 278.246094 315.429688 278.410156 315.921875 278.3125 316.503906 L 276.527344 326.945312 L 285.859375 322.042969 C 286.101562 321.917969 286.359375 321.855469 286.632812 321.859375 Z M 286.632812 321.859375 " fill-opacity="1" fill-rule="nonzero"/></g><g clip-path="url(#42c789daaa)"><path fill="#ffffff" d="M 351.121094 331.710938 C 350.839844 331.714844 350.578125 331.652344 350.328125 331.527344 L 338.773438 325.445312 L 327.203125 331.527344 C 326.921875 331.671875 326.621094 331.734375 326.300781 331.714844 C 325.984375 331.691406 325.695312 331.585938 325.4375 331.398438 C 325.175781 331.210938 324.988281 330.96875 324.867188 330.671875 C 324.746094 330.378906 324.710938 330.070312 324.761719 329.757812 L 326.984375 316.871094 L 317.621094 307.742188 C 317.394531 307.519531 317.242188 307.25 317.167969 306.941406 C 317.09375 306.628906 317.105469 306.324219 317.207031 306.019531 C 317.304688 305.71875 317.480469 305.460938 317.722656 305.257812 C 317.96875 305.050781 318.25 304.925781 318.5625 304.878906 L 331.5 302.996094 L 337.277344 291.203125 C 337.417969 290.917969 337.625 290.691406 337.898438 290.523438 C 338.167969 290.355469 338.464844 290.273438 338.785156 290.273438 C 339.101562 290.273438 339.398438 290.355469 339.667969 290.523438 C 339.941406 290.691406 340.148438 290.917969 340.289062 291.203125 L 346.066406 302.996094 L 358.984375 304.878906 C 359.304688 304.925781 359.585938 305.054688 359.832031 305.261719 C 360.078125 305.46875 360.25 305.726562 360.347656 306.03125 C 360.445312 306.335938 360.457031 306.648438 360.378906 306.957031 C 360.300781 307.269531 360.144531 307.539062 359.914062 307.761719 L 350.566406 316.871094 L 352.769531 329.757812 C 352.8125 330.003906 352.800781 330.25 352.734375 330.488281 C 352.667969 330.730469 352.554688 330.949219 352.390625 331.136719 C 352.230469 331.328125 352.035156 331.476562 351.804688 331.578125 C 351.578125 331.679688 351.335938 331.730469 351.085938 331.726562 Z M 338.773438 321.859375 C 339.054688 321.855469 339.316406 321.914062 339.566406 322.042969 L 348.878906 326.945312 L 347.09375 316.550781 C 347 315.972656 347.164062 315.480469 347.582031 315.070312 L 355.128906 307.660156 L 344.703125 306.144531 C 344.121094 306.054688 343.699219 305.746094 343.441406 305.21875 L 338.773438 295.871094 L 334.109375 305.320312 C 333.851562 305.847656 333.429688 306.15625 332.847656 306.246094 L 322.421875 307.660156 L 329.964844 315.019531 C 330.386719 315.429688 330.550781 315.921875 330.453125 316.503906 L 328.667969 326.945312 L 338 322.042969 C 338.242188 321.917969 338.5 321.855469 338.773438 321.859375 Z M 338.773438 321.859375 " fill-opacity="1" fill-rule="nonzero"/></g></svg>